<svg width="256" height="256" viewBox="0 0 256 256" fill="none" xmlns="http://www.w3.org/2000/svg">
  <rect width="256" height="256" rx="56" fill="url(#paint0_linear_490_13)"/>
  <rect x="18" y="18" width="220" height="220" rx="42" stroke="white" stroke-opacity="0.16" stroke-width="2"/>
  <path d="M128 46C102.868 69.1724 90.8231 98.7438 91.9127 127.866C66.5827 117.824 42.7115 120.749 28.5 134.44C50.1797 141.407 68.4962 158.104 81.219 182.079C87.4818 193.896 91.9414 206.897 94.5688 220H74.6761L58.5962 254H106.392L128 223.855L149.608 254H197.404L181.324 220H161.431C164.059 206.897 168.518 193.896 174.781 182.079C187.504 158.104 205.82 141.407 227.5 134.44C213.289 120.749 189.417 117.824 164.087 127.866C165.177 98.7438 153.132 69.1724 128 46Z" fill="white"/>
  <path d="M128 103C116.757 114.745 110.751 128.803 109.987 143.153C109.169 158.144 113.623 174.6 128 192.66C142.377 174.6 146.831 158.144 146.013 143.153C145.249 128.803 139.243 114.745 128 103Z" fill="#C89B52" fill-opacity="0.92"/>
  <path d="M114.5 219.5H141.5" stroke="#C89B52" stroke-width="8" stroke-linecap="round"/>
  <defs>
    <linearGradient id="paint0_linear_490_13" x1="28" y1="18" x2="230" y2="240" gradientUnits="userSpaceOnUse">
      <stop stop-color="#1F3448"/>
      <stop offset="0.55" stop-color="#24584B"/>
      <stop offset="1" stop-color="#C89B52"/>
    </linearGradient>
  </defs>
</svg>
